<?xml version="1.0" encoding="UTF-8"?><svg id="Camada_1" xmlns="http://www.w3.org/2000/svg" viewBox="0 0 270 60"><defs><style>.cls-1{fill:#fff;}.cls-1,.cls-2{stroke-width:0px;}.cls-2{fill:#189435;}</style></defs><rect class="cls-2" y="0" width="270" height="60" rx="12" ry="12"/><path class="cls-1" d="m53.18,34.38c-.08-.04-2.98-1.47-3.5-1.65-.21-.08-.44-.15-.68-.15-.39,0-.72.2-.98.58-.29.43-1.17,1.46-1.44,1.77-.04.04-.08.09-.11.09-.03,0-.48-.19-.61-.24-3.12-1.35-5.48-4.61-5.81-5.16-.05-.08-.05-.11-.05-.11.01-.04.12-.15.17-.2.16-.16.33-.36.5-.56.08-.09.16-.19.23-.28.24-.28.35-.5.47-.75l.07-.13c.3-.6.04-1.11-.04-1.28-.07-.14-1.3-3.1-1.43-3.41-.31-.75-.73-1.1-1.3-1.1-.05,0,0,0-.22,0-.27.01-1.76.21-2.42.62-.7.44-1.88,1.84-1.88,4.3,0,2.22,1.41,4.31,2.01,5.11.02.02.04.06.08.12,2.31,3.38,5.2,5.88,8.12,7.05,2.81,1.12,4.15,1.25,4.9,1.25h0c.32,0,.57-.02.8-.05h.14c.97-.1,3.11-1.21,3.59-2.56.38-1.06.48-2.23.23-2.65-.17-.29-.48-.43-.86-.61Z"/><path class="cls-1" d="m43.97,11.47c-10.8,0-19.58,8.72-19.58,19.43,0,3.47.93,6.86,2.68,9.83l-3.36,9.92c-.06.18-.02.39.12.53.1.1.23.16.37.16.05,0,.11,0,.16-.02l10.34-3.29c2.83,1.51,6.03,2.31,9.27,2.31,10.8,0,19.58-8.72,19.58-19.43s-8.78-19.43-19.58-19.43Zm0,34.82c-3.05,0-6-.88-8.53-2.54-.09-.06-.18-.08-.28-.08-.05,0-.11,0-.16.02l-5.18,1.65,1.67-4.93c.05-.16.03-.34-.07-.47-1.93-2.64-2.95-5.76-2.95-9.02,0-8.48,6.96-15.38,15.51-15.38s15.51,6.9,15.51,15.38c0,8.48-6.96,15.38-15.51,15.38Z"/><path class="cls-1" d="m80.35,32.46v5.16h-2.27v-13.2h3.73c.83,0,1.55.09,2.14.28.59.19,1.08.45,1.46.78.38.33.66.73.84,1.2.18.47.27.98.27,1.54,0,.44-.06.86-.18,1.26-.12.4-.3.75-.52,1.08-.23.32-.51.61-.85.85s-.72.44-1.15.58c.29.18.54.43.74.76l3.06,4.88h-2.05c-.2,0-.36-.04-.5-.13s-.25-.21-.35-.37l-2.57-4.23c-.1-.16-.2-.27-.32-.34-.12-.07-.29-.1-.51-.1h-.97Zm0-1.76h1.42c.43,0,.8-.06,1.12-.17.32-.12.58-.27.79-.48.21-.2.36-.45.46-.73.1-.28.15-.59.15-.92,0-.67-.2-1.18-.61-1.54-.41-.36-1.03-.54-1.87-.54h-1.45v4.38Z"/><path class="cls-1" d="m92.54,28.11c.55,0,1.05.09,1.51.28.46.19.85.46,1.19.83.33.36.59.81.78,1.33s.28,1.13.28,1.8c0,.17,0,.31-.02.42-.01.11-.04.2-.08.26s-.09.11-.15.14-.14.04-.24.04h-5.36c.06.96.3,1.67.72,2.12s.97.68,1.66.68c.34,0,.63-.04.88-.13s.46-.18.64-.28c.18-.1.34-.2.48-.28.14-.08.27-.13.4-.13.08,0,.16.02.22.06.06.04.12.09.16.15l.61.82c-.23.29-.49.54-.78.73-.29.2-.59.36-.9.47-.31.12-.63.2-.96.25-.32.05-.64.07-.94.07-.6,0-1.16-.11-1.68-.32-.52-.22-.97-.54-1.35-.96s-.68-.95-.9-1.57-.33-1.35-.33-2.17c0-.64.1-1.24.29-1.8.19-.56.47-1.05.82-1.47.36-.42.79-.75,1.31-.99.52-.24,1.1-.37,1.75-.37Zm.04,1.62c-.61,0-1.08.19-1.43.56-.34.37-.56.9-.66,1.58h3.92c0-.29-.04-.57-.11-.83-.07-.26-.19-.49-.34-.68-.15-.19-.34-.35-.57-.46-.23-.11-.5-.17-.81-.17Z"/><path class="cls-1" d="m104.78,37.62h-.94c-.2,0-.35-.03-.46-.1-.11-.06-.2-.19-.25-.39l-.19-.67c-.22.21-.44.4-.65.56-.21.16-.43.3-.66.41-.23.11-.46.19-.72.25-.25.06-.54.08-.85.08-.37,0-.7-.05-1.01-.16-.31-.11-.58-.27-.8-.48s-.4-.48-.52-.8-.19-.69-.19-1.11c0-.35.09-.7.26-1.05.17-.34.46-.66.86-.93.4-.28.93-.51,1.6-.69.67-.18,1.49-.28,2.48-.28v-.55c0-.63-.12-1.1-.37-1.4s-.6-.46-1.07-.46c-.34,0-.62.04-.85.13-.23.09-.42.18-.59.29-.17.11-.32.2-.46.29-.14.09-.3.13-.46.13-.14,0-.26-.04-.36-.12-.1-.08-.18-.18-.25-.29l-.38-.72c1-.99,2.2-1.48,3.61-1.48.51,0,.96.09,1.36.27.4.18.73.43,1.01.75.28.32.49.7.63,1.15.14.44.22.93.22,1.46v5.92Zm-4.06-1.41c.21,0,.41-.02.59-.06s.35-.1.51-.19c.16-.08.32-.19.46-.31.15-.12.3-.27.45-.44v-1.57c-.61,0-1.12.04-1.53.12-.41.08-.74.19-.98.32-.25.13-.42.28-.53.45s-.16.36-.16.56c0,.4.11.68.33.86.22.17.5.26.85.26Z"/><path class="cls-1" d="m109.06,24.05v13.57h-2.09v-13.57h2.09Z"/><path class="cls-1" d="m113.95,25.52c0,.19-.04.38-.11.55s-.17.32-.29.45c-.12.13-.26.23-.43.31s-.34.11-.52.11-.35-.04-.51-.11c-.16-.08-.3-.18-.42-.31-.12-.13-.21-.28-.28-.45-.07-.17-.11-.35-.11-.55s.04-.39.11-.57c.07-.18.16-.33.28-.46.12-.13.26-.23.42-.31.16-.08.33-.11.51-.11s.36.04.52.11.31.18.43.31c.12.13.22.28.29.46.07.18.11.37.11.57Zm-.31,2.73v9.37h-2.09v-9.37h2.09Z"/><path class="cls-1" d="m122.27,29.18c0,.16-.03.31-.08.46-.05.15-.12.28-.19.38l-4.13,5.86h4.28v1.73h-6.7v-.94c0-.1.02-.23.07-.37.05-.14.12-.28.21-.41l4.16-5.92h-4.19v-1.73h6.58v.93Z"/><path class="cls-1" d="m127.52,28.11c.55,0,1.05.09,1.51.28.46.19.85.46,1.19.83.33.36.59.81.78,1.33s.28,1.13.28,1.8c0,.17,0,.31-.02.42-.01.11-.04.2-.08.26s-.09.11-.15.14-.14.04-.24.04h-5.36c.06.96.3,1.67.72,2.12s.97.68,1.66.68c.34,0,.63-.04.88-.13s.46-.18.64-.28c.18-.1.34-.2.48-.28.14-.08.27-.13.4-.13.08,0,.16.02.22.06.06.04.12.09.16.15l.61.82c-.23.29-.49.54-.78.73-.29.2-.59.36-.9.47-.31.12-.63.2-.96.25-.32.05-.64.07-.94.07-.6,0-1.16-.11-1.68-.32-.52-.22-.97-.54-1.35-.96s-.68-.95-.9-1.57-.33-1.35-.33-2.17c0-.64.1-1.24.29-1.8.19-.56.47-1.05.82-1.47.36-.42.79-.75,1.31-.99.52-.24,1.1-.37,1.75-.37Zm.04,1.62c-.61,0-1.08.19-1.43.56-.34.37-.56.9-.66,1.58h3.92c0-.29-.04-.57-.11-.83-.07-.26-.19-.49-.34-.68-.15-.19-.34-.35-.57-.46-.23-.11-.5-.17-.81-.17Z"/><path class="cls-1" d="m141.38,30.08c-.06.1-.12.17-.18.21-.06.04-.14.06-.24.06-.1,0-.21-.03-.33-.09-.12-.06-.25-.13-.4-.21s-.33-.14-.52-.21c-.19-.06-.42-.09-.69-.09-.41,0-.74.09-.97.28s-.36.44-.36.74c0,.2.06.37.18.51.12.14.28.26.48.36s.43.2.68.28c.25.08.51.17.78.27s.52.21.78.33c.25.12.48.28.68.47.2.19.36.42.48.69s.18.59.18.97c0,.45-.08.87-.23,1.25s-.38.71-.67.99c-.29.28-.66.49-1.09.65s-.93.23-1.48.23c-.3,0-.59-.03-.88-.09-.29-.06-.56-.14-.82-.24-.26-.1-.5-.22-.73-.37-.22-.14-.42-.29-.59-.46l.48-.86c.06-.1.13-.18.22-.24.08-.05.19-.08.32-.08s.25.04.37.12.25.17.4.26c.15.09.33.18.54.26s.47.12.78.12c.25,0,.46-.03.64-.1.18-.06.32-.15.44-.25.12-.1.2-.22.25-.36s.08-.28.08-.42c0-.22-.06-.4-.18-.54-.12-.14-.28-.26-.48-.37s-.43-.2-.68-.28c-.26-.08-.52-.17-.79-.27-.27-.1-.53-.21-.79-.34-.26-.13-.49-.3-.69-.5-.2-.2-.36-.45-.48-.74-.12-.29-.18-.65-.18-1.06,0-.38.07-.75.21-1.1.14-.35.35-.65.62-.91.27-.26.61-.47,1.02-.62s.88-.23,1.42-.23c.6,0,1.14.11,1.63.32.49.21.9.49,1.23.84l-.47.81Z"/><path class="cls-1" d="m147.21,28.11c.55,0,1.05.09,1.51.28.46.19.85.46,1.19.83.33.36.59.81.78,1.33.19.53.28,1.13.28,1.8,0,.17,0,.31-.02.42s-.04.2-.08.26c-.04.06-.09.11-.15.14-.06.03-.14.04-.24.04h-5.36c.06.96.3,1.67.72,2.12s.97.68,1.66.68c.34,0,.63-.04.88-.13s.46-.18.64-.28c.18-.1.34-.2.48-.28.14-.08.27-.13.4-.13.08,0,.16.02.22.06.06.04.12.09.16.15l.61.82c-.23.29-.49.54-.78.73-.29.2-.59.36-.9.47-.31.12-.63.2-.96.25-.32.05-.64.07-.94.07-.6,0-1.16-.11-1.68-.32-.52-.22-.97-.54-1.35-.96-.38-.42-.68-.95-.9-1.57s-.33-1.35-.33-2.17c0-.64.1-1.24.29-1.8.19-.56.47-1.05.82-1.47.36-.42.79-.75,1.31-.99.52-.24,1.1-.37,1.75-.37Zm.04,1.62c-.61,0-1.08.19-1.43.56-.34.37-.56.9-.66,1.58h3.92c0-.29-.04-.57-.11-.83-.07-.26-.19-.49-.34-.68-.15-.19-.34-.35-.57-.46-.23-.11-.5-.17-.81-.17Z"/><path class="cls-1" d="m154.57,28.25v5.95c0,.57.12,1.01.37,1.33.25.31.61.47,1.1.47.36,0,.7-.09,1.02-.26.31-.17.61-.41.89-.72v-6.77h2.09v9.37h-1.28c-.27,0-.45-.14-.53-.41l-.14-.75c-.18.19-.37.37-.56.53s-.4.3-.61.41c-.22.11-.45.2-.7.26-.25.06-.52.1-.81.1-.47,0-.89-.09-1.26-.26-.36-.17-.67-.42-.92-.73-.25-.32-.43-.69-.56-1.13-.13-.43-.19-.91-.19-1.44v-5.95h2.09Z"/><path class="cls-1" d="m170.68,30.08c-.06.1-.12.17-.18.21-.06.04-.14.06-.24.06-.1,0-.21-.03-.33-.09-.12-.06-.25-.13-.4-.21-.15-.08-.33-.14-.52-.21-.19-.06-.42-.09-.69-.09-.41,0-.74.09-.97.28-.24.19-.35.44-.35.74,0,.2.06.37.18.51s.28.26.48.36.43.2.68.28.51.17.78.27c.27.1.52.21.78.33.25.12.48.28.68.47.2.19.36.42.48.69s.18.59.18.97c0,.45-.08.87-.23,1.25-.15.38-.37.71-.67.99-.29.28-.66.49-1.09.65-.43.16-.93.23-1.48.23-.3,0-.59-.03-.88-.09-.28-.06-.56-.14-.82-.24-.26-.1-.5-.22-.73-.37-.22-.14-.42-.29-.59-.46l.48-.86c.06-.1.13-.18.22-.24s.19-.08.32-.08.25.04.37.12c.12.08.25.17.4.26.15.09.33.18.54.26.21.08.47.12.78.12.25,0,.46-.03.64-.1.18-.06.32-.15.44-.25.12-.1.2-.22.25-.36s.08-.28.08-.42c0-.22-.06-.4-.18-.54-.12-.14-.28-.26-.48-.37s-.43-.2-.68-.28c-.26-.08-.52-.17-.79-.27s-.53-.21-.79-.34c-.26-.13-.48-.3-.68-.5s-.36-.45-.48-.74-.18-.65-.18-1.06c0-.38.07-.75.21-1.1.14-.35.35-.65.62-.91s.61-.47,1.02-.62c.41-.16.88-.23,1.42-.23.6,0,1.14.11,1.63.32.49.21.9.49,1.23.84l-.47.81Z"/><path class="cls-1" d="m176.62,28.11c.65,0,1.24.11,1.76.34.53.23.98.54,1.35.96s.66.92.86,1.52c.2.6.3,1.26.3,2s-.1,1.41-.3,2.01c-.2.6-.49,1.1-.86,1.52s-.82.74-1.35.97c-.53.23-1.12.34-1.76.34s-1.24-.11-1.77-.34c-.53-.22-.98-.55-1.36-.97-.38-.42-.67-.93-.87-1.52-.21-.6-.31-1.27-.31-2.01s.1-1.4.31-2c.21-.6.5-1.1.87-1.52.37-.41.83-.73,1.36-.96.53-.23,1.12-.34,1.77-.34Zm0,7.91c.72,0,1.25-.26,1.6-.79s.52-1.29.52-2.3-.17-1.78-.52-2.31c-.35-.53-.88-.79-1.6-.79s-1.27.27-1.62.8c-.35.53-.52,1.3-.52,2.31s.17,1.77.52,2.3.89.79,1.62.79Z"/><path class="cls-1" d="m182.53,37.62v-9.37h1.28c.27,0,.45.14.53.41l.14.74c.17-.19.36-.37.55-.53.19-.16.4-.29.62-.41s.45-.2.7-.26.52-.09.81-.09c.47,0,.89.09,1.26.26s.67.42.92.73c.25.31.43.69.56,1.12s.19.91.19,1.44v5.96h-2.09v-5.96c0-.57-.12-1.02-.37-1.33-.25-.31-.61-.47-1.1-.47-.36,0-.7.09-1.01.26-.32.18-.61.42-.9.72v6.77h-2.09Z"/><path class="cls-1" d="m192.15,37.62v-13.57h2.09v5.21c.34-.35.71-.63,1.12-.84.41-.21.88-.32,1.43-.32.47,0,.89.09,1.26.26s.67.42.92.73c.25.31.43.69.56,1.12s.19.91.19,1.44v5.96h-2.09v-5.96c0-.57-.12-1.02-.37-1.33-.25-.31-.61-.47-1.1-.47-.36,0-.7.09-1.01.26-.32.18-.61.42-.9.72v6.77h-2.09Z"/><path class="cls-1" d="m205.46,28.11c.65,0,1.24.11,1.76.34.53.23.98.54,1.35.96s.66.92.86,1.52c.2.6.3,1.26.3,2s-.1,1.41-.3,2.01c-.2.6-.49,1.1-.86,1.52s-.82.74-1.35.97c-.53.23-1.12.34-1.76.34s-1.24-.11-1.77-.34c-.53-.22-.98-.55-1.36-.97-.38-.42-.67-.93-.87-1.52-.21-.6-.31-1.27-.31-2.01s.1-1.4.31-2c.21-.6.5-1.1.87-1.52.37-.41.83-.73,1.36-.96.53-.23,1.12-.34,1.77-.34Zm0,7.91c.72,0,1.25-.26,1.6-.79s.52-1.29.52-2.3-.17-1.78-.52-2.31c-.35-.53-.88-.79-1.6-.79s-1.27.27-1.62.8c-.35.53-.52,1.3-.52,2.31s.17,1.77.52,2.3.89.79,1.62.79Z"/><path class="cls-1" d="m214.63,37.62v-13.57h2.09v5.21c.34-.35.71-.63,1.12-.84.41-.21.88-.32,1.43-.32.47,0,.89.09,1.26.26s.67.42.92.73c.25.31.43.69.56,1.12s.19.91.19,1.44v5.96h-2.09v-5.96c0-.57-.12-1.02-.37-1.33-.25-.31-.61-.47-1.1-.47-.36,0-.7.09-1.01.26-.32.18-.61.42-.9.72v6.77h-2.09Z"/><path class="cls-1" d="m227.94,28.11c.65,0,1.24.11,1.76.34.53.23.98.54,1.35.96s.66.92.86,1.52c.2.6.3,1.26.3,2s-.1,1.41-.3,2.01c-.2.6-.49,1.1-.86,1.52s-.82.74-1.35.97c-.53.23-1.12.34-1.76.34s-1.24-.11-1.77-.34c-.53-.22-.98-.55-1.36-.97-.38-.42-.67-.93-.87-1.52-.21-.6-.31-1.27-.31-2.01s.1-1.4.31-2c.21-.6.5-1.1.87-1.52.37-.41.83-.73,1.36-.96.53-.23,1.12-.34,1.77-.34Zm0,7.91c.72,0,1.25-.26,1.6-.79s.52-1.29.52-2.3-.17-1.78-.52-2.31c-.35-.53-.88-.79-1.6-.79s-1.27.27-1.62.8c-.35.53-.52,1.3-.52,2.31s.17,1.77.52,2.3.89.79,1.62.79Z"/><path class="cls-1" d="m236.08,28.25v9.69c0,.41-.05.79-.15,1.15s-.26.67-.47.95c-.22.27-.5.48-.85.64-.35.16-.78.23-1.29.23-.2,0-.38-.01-.55-.04s-.34-.07-.52-.13l.07-1.21c.02-.12.06-.2.14-.23s.21-.05.42-.05.38-.02.53-.07c.14-.04.26-.12.35-.22.09-.1.15-.23.19-.4.04-.16.05-.37.05-.61v-9.69h2.09Zm.31-2.73c0,.19-.04.38-.11.55s-.17.32-.29.45-.26.23-.43.31-.34.11-.52.11-.35-.04-.51-.11c-.16-.08-.3-.18-.42-.31s-.21-.28-.28-.45-.11-.35-.11-.55.04-.39.11-.57c.07-.18.17-.33.28-.46s.26-.23.42-.31c.16-.08.33-.11.51-.11s.36.04.52.11.31.18.43.31.22.28.29.46c.07.18.11.37.11.57Z"/><path class="cls-1" d="m241.98,28.11c.55,0,1.05.09,1.51.28.46.19.85.46,1.19.83.33.36.59.81.78,1.33.19.53.28,1.13.28,1.8,0,.17,0,.31-.02.42-.01.11-.04.2-.08.26-.04.06-.09.11-.15.14-.06.03-.14.04-.24.04h-5.36c.06.96.3,1.67.72,2.12s.97.68,1.66.68c.34,0,.63-.04.88-.13s.46-.18.64-.28c.18-.1.34-.2.48-.28.14-.08.27-.13.4-.13.08,0,.16.02.22.06.06.04.12.09.16.15l.61.82c-.23.29-.49.54-.78.73-.29.2-.59.36-.9.47-.31.12-.63.2-.96.25s-.64.07-.94.07c-.6,0-1.16-.11-1.68-.32-.52-.22-.97-.54-1.35-.96s-.68-.95-.9-1.57-.33-1.35-.33-2.17c0-.64.1-1.24.29-1.8.19-.56.47-1.05.82-1.47.36-.42.79-.75,1.31-.99.52-.24,1.1-.37,1.75-.37Zm.04,1.62c-.61,0-1.08.19-1.43.56-.34.37-.56.9-.66,1.58h3.92c0-.29-.04-.57-.11-.83-.07-.26-.19-.49-.34-.68-.15-.19-.34-.35-.58-.46-.23-.11-.5-.17-.81-.17Z"/></svg>